<svg id="Layer_1" data-name="Layer 1" xmlns="http://www.w3.org/2000/svg" viewBox="0 0 871.96 884.79"><defs><style>.cls-1{fill:#d3aa65;}</style></defs><path class="cls-1" d="M471.47,149H451.22l-164,377.26q17.68-6.78,36-14.75l111.2-258.3,69.28,158.3q32.84-22.08,62.9-45.17Z" transform="translate(0.01 0.04)"/><path class="cls-1" d="M859.51,51.23c-29.18-45.86-105.3-53.92-204-29.92,74.22-14.5,130.29-6,152.79,29.33,7.05,11.09,10.31,24.27,10.29,39-36.82,6.06-171.9,18.41-345.26-84.06L463.84,0l-9.5,5.62C252.28,125,100.51,88,99,87.68L77.44,82l-.8,10.13-.24-.06L75.24,107c-6.69,85.83-7,186.08,8.83,286.68C11,485-19.15,568.54,12.47,618.24c24.88,39.1,83.85,50.77,161.85,38.49A545,545,0,0,0,246.88,753c102.2,107.85,210,130.35,214.53,131.26l2.44.48,2.43-.48c4.54-.91,112.34-23.41,214.54-131.26,152.91-161.34,182-397.7,175-586.3C875.34,120.25,877.84,80,859.51,51.23ZM46.82,560.37c-23-36.17-6.73-94,38.43-159.73,9.09,55,23,110,43.6,162.69a324.7,324.7,0,0,0,43.34-4.39c-50.81-116.37-71.62-262.09-60.75-431.09,50.67,6.93,184,11.93,352.41-84.57,164.12,94,294.8,91.69,348.29,85.1C784.73,217.24,672.77,341.47,516.85,445.8,306.58,586.59,96.14,637.88,46.82,560.37ZM656.23,711.56c-83.64,88.41-173.43,115-192.38,119.8-19-4.84-108.77-31.42-192.38-119.8a492,492,0,0,1-51.08-64.38c93.3-23.35,206.24-74.93,318.79-150.27l1.45-1,18,41.21c15.22,34.68-15.94,50.68-48.71,50.68v14H699V590.27S663.59,588,647.83,552l-44.2-101c93.93-71.18,168.7-147.73,215.21-217C815.35,438.24,760,601.8,656.23,711.56Z" transform="translate(0.01 0.04)"/></svg>