<svg xmlns="http://www.w3.org/2000/svg" fill="none" class="text-primary-new" style="width:6.75rem" viewBox="0 0 110 28"><path fill="currentColor" d="M80.314 5.486V.571H69.22v26.893h11.094V22.55H74.17v-6.074h6.144V11.56H74.17V5.486zm25.492 20.609c0-.737.527-1.37 1.369-1.37.843 0 1.37.598 1.37 1.37 0 .737-.527 1.37-1.37 1.37-.842 0-1.369-.598-1.369-1.37m2.423 0c0-.562-.422-1.053-1.054-1.053s-1.053.491-1.053 1.053.421 1.053 1.053 1.053 1.054-.456 1.054-1.053m-1.65.667v-1.334h.561c.316 0 .667.07.667.386 0 .21-.14.281-.386.316v.105h.246c.105 0 .14.036.14.14v.387h-.281v-.421h-.631v.421zm.28-.702h.281c.246 0 .386 0 .386-.176 0-.175-.14-.175-.386-.175h-.281zM95.344.571h-12.99v4.915h3.37v21.978h4.95V5.486h2.81zm13.166 0H97.416l-1.861 4.915h4.143v21.978h4.985V5.486h3.827zM67.573 27.464 61.29 14.018 67.573.57h-5.301l-6.285 13.447 6.285 13.446zM44.118 16.475v6.074h-3.616V5.486h3.616v6.074h4.915V4.328A4.04 4.04 0 0 0 44.995.29h-5.441a4 4 0 0 0-4.003 4.002v19.38a4.04 4.04 0 0 0 4.038 4.038h5.442a4.04 4.04 0 0 0 4.037-4.038v-7.197z"/><path fill="currentColor" d="M51.114.589v26.893h4.95V.589zM33.445 5.486V.571H22.351v26.893h11.094V22.55h-6.144v-6.074h6.144V11.56h-6.144V5.486zM4.658 13.842H.796L3.78 16.16l-1.545 4.072 3.862-2.528V9.98l-1.44 3.862Zm15.589-3.23V4.398A3.836 3.836 0 0 0 16.42.57H6.098v9.41l1.474 3.861H11.4l-2.95 2.318 1.545 4.073-3.897-2.528v9.76h10.216a3.926 3.926 0 0 0 3.933-3.932v-6.144c0-1.545-1.019-2.95-2.493-3.406 1.474-.42 2.492-1.79 2.492-3.37ZM15.823 20.97c0 1.018-.843 1.86-1.86 1.86h-2.915v-6.6h2.914c1.018 0 1.86.843 1.86 1.861zm0-11.27a1.873 1.873 0 0 1-1.86 1.861h-2.915V5.24h2.914c1.018 0 1.86.843 1.86 1.861z"/></svg>