<svg xmlns="http://www.w3.org/2000/svg" viewBox="0 0 220 65"><path fill="#000000" d="M142.959 5.176c2.067 0 3.844.076 5.422.217 1.578.14 2.954.341 4.22.594s2.42.558 3.554.9 2.241.723 3.416 1.128l-.162 2.045-.324 4.09-.17 2.047a23 23 0 0 0-3.08-1.7 21.5 21.5 0 0 0-3.453-1.217 28 28 0 0 0-4.075-.73 46 46 0 0 0-4.948-.244c-3.261 0-6.25.593-8.897 1.68a20 20 0 0 0-6.855 4.642c-1.9 1.976-3.392 4.346-4.407 7.012-1.018 2.667-1.558 5.629-1.558 8.79 0 3.323.597 6.365 1.678 9.062 1.082 2.696 2.643 5.046 4.572 6.98a20.4 20.4 0 0 0 6.776 4.49c2.549 1.035 5.351 1.588 8.288 1.588 1.396 0 2.537-.034 3.49-.096a30 30 0 0 0 2.382-.238 25 25 0 0 0 1.716-.315c.508-.11.98-.22 1.487-.322V38.404H140.12v-6.649h20.017v29.416a41 41 0 0 1-2.753.838 44 44 0 0 1-3.719.814 54 54 0 0 1-4.798.617 71 71 0 0 1-5.99.243c-4.478 0-8.58-.72-12.215-2.08-3.635-1.359-6.803-3.36-9.411-5.923s-4.658-5.687-6.054-9.295c-1.396-3.609-2.14-7.7-2.14-12.199 0-4.355.788-8.347 2.243-11.883 1.455-3.537 3.574-6.62 6.233-9.156 2.66-2.536 5.858-4.53 9.47-5.889 3.614-1.36 7.64-2.082 11.956-2.082M101.55 5.17c1.094 0 2.18.04 3.262.13q1.621.132 3.217.418t3.158.752c1.04.312 2.07.686 3.083 1.133l-.163 1.964-.162 1.964-.162 1.964-.165 1.973a23 23 0 0 0-2.745-1.383 22.604 22.604 0 0 0-5.857-1.58 24 24 0 0 0-3.065-.198c-3.262 0-6.25.588-8.898 1.67a19.9 19.9 0 0 0-6.855 4.623c-1.9 1.97-3.391 4.338-4.407 7.007-1.017 2.67-1.558 5.643-1.558 8.824 0 3.323.597 6.365 1.679 9.062 1.081 2.696 2.642 5.046 4.571 6.98a20.4 20.4 0 0 0 6.777 4.49c2.549 1.035 5.35 1.588 8.288 1.588 1.012 0 2.111-.066 3.234-.191a34 34 0 0 0 3.377-.549 27 27 0 0 0 3.151-.867c.971-.337 1.841-.723 2.552-1.148l.122 1.964.37 5.891a22 22 0 0 1-3.358 1.07c-1.15.272-2.316.471-3.449.612a42.853 42.853 0 0 1-3.266.277 56 56 0 0 1-2.812.067c-4.478 0-8.58-.72-12.216-2.08-3.635-1.359-6.803-3.36-9.41-5.923s-4.658-5.688-6.054-9.296-2.141-7.7-2.141-12.198c0-4.355.789-8.347 2.244-11.884s3.574-6.619 6.233-9.155c2.66-2.537 5.857-4.53 9.47-5.89s7.64-2.081 11.955-2.081m91.796 0c1.094 0 2.185.04 3.267.13q1.622.132 3.22.418 1.597.286 3.158.752c1.04.312 2.07.686 3.082 1.133l-.162 1.964-.325 3.928-.16 1.973a23 23 0 0 0-2.747-1.383 22.683 22.683 0 0 0-5.857-1.58 24 24 0 0 0-3.068-.198c-3.262 0-6.248.588-8.895 1.67a19.9 19.9 0 0 0-6.852 4.623c-1.9 1.97-3.39 4.338-4.407 7.007-1.018 2.67-1.559 5.643-1.559 8.824 0 3.323.598 6.365 1.677 9.062a20.8 20.8 0 0 0 4.571 6.98 20.4 20.4 0 0 0 6.774 4.49c2.549 1.035 5.348 1.588 8.285 1.588 1.013 0 2.114-.066 3.237-.191a34 34 0 0 0 3.38-.549 27 27 0 0 0 3.151-.867c.97-.337 1.843-.723 2.551-1.148l.12 1.964.121 1.964.241 3.927c-1.074.445-2.21.797-3.357 1.07a32 32 0 0 1-3.449.612 42.853 42.853 0 0 1-3.266.277 56 56 0 0 1-2.81.067c-4.478 0-8.58-.72-12.215-2.08-3.635-1.359-6.803-3.36-9.411-5.923s-4.658-5.688-6.054-9.296-2.14-7.7-2.14-12.198c0-4.355.79-8.347 2.243-11.884 1.455-3.537 3.574-6.619 6.233-9.155 2.66-2.537 5.857-4.53 9.47-5.89s7.64-2.081 11.953-2.081M34.769 0c.752.005 1.45.155 2.062.383a6.5 6.5 0 0 1 1.632.907c.477.36.885.762 1.231 1.16.344.399.627.792.846 1.136 2.293.044 4.245.113 5.884.19 1.64.075 2.967.161 4.006.243 1.04.08 1.797.154 2.293.211.5.056.738.09.748.093l.003.002q.01 0 .014.003l.004.002h.006l.01.004.027.014.017.012q.008.005.014.013l.015.014c.005.005.008.005.012.013q.008.008.013.017a.1.1 0 0 0 .012.022l3.864 10.46 3.864 10.461 3.863 10.46 3.864 10.461a.34.34 0 0 1 .238.091.4.4 0 0 1 .06.067q.025.037.036.078.019.042.025.086a.36.36 0 0 1-.012.177c-.01.03-.07.224-.192.541-.123.317-.307.76-.568 1.283-.26.524-.595 1.13-1.013 1.782a18 18 0 0 1-1.52 2.04 16.5 16.5 0 0 1-2.009 1.964 16 16 0 0 1-2.743 1.814 16 16 0 0 1-3.54 1.334 18.24 18.24 0 0 1-4.401.519c-1.618 0-3.082-.192-4.402-.519a16 16 0 0 1-3.54-1.334 15.8 15.8 0 0 1-2.743-1.814 16.6 16.6 0 0 1-2.008-1.964 18.3 18.3 0 0 1-2.531-3.822c-.26-.523-.445-.963-.568-1.283s-.182-.511-.192-.54a.38.38 0 0 1 .013-.264.35.35 0 0 1 .1-.145.37.37 0 0 1 .239-.09L41.64 35.89l3.84-10.387 3.838-10.387 3.827-10.387h-.024l-.112.006c-.643.035-2.01.129-3.72.355-1.817.241-4.019.634-6.15 1.268-2.13.635-4.188 1.512-5.712 2.719s-2.517 2.748-2.517 4.71v.077c.004.383.02 2.11.067 4.708.051 2.897.142 6.882.295 11.293.152 4.412.366 9.257.668 13.877s.688 9.018 1.187 12.54c.893 1.047 1.981 1.888 3.114 2.561A19 19 0 0 0 43.62 60.4c1.069.376 2.027.622 2.725.775.698.152 1.133.21 1.158.213a.2.2 0 0 1 .074.025.3.3 0 0 1 .056.047q.026.026.037.064a.2.2 0 0 1 .01.076.2.2 0 0 1-.02.073.202.202 0 0 1-.18.113H21.95a.2.2 0 0 1-.074-.014.2.2 0 0 1-.062-.04.2.2 0 0 1-.044-.059.2.2 0 0 1-.02-.073.16.16 0 0 1 .01-.076.3.3 0 0 1 .037-.064.2.2 0 0 1 .13-.072c.023-.002.46-.061 1.158-.213a23 23 0 0 0 2.726-.775 19 19 0 0 0 3.377-1.556c1.133-.673 2.222-1.516 3.114-2.56.5-3.523.885-7.92 1.187-12.54.303-4.621.516-9.463.669-13.878a689 689 0 0 0 .36-15.95v-.089l.001-.04c0-1.961-.993-3.502-2.517-4.71-1.524-1.206-3.583-2.083-5.712-2.718s-4.333-1.027-6.15-1.268a49 49 0 0 0-3.831-.361h-.025l3.84 10.387 3.834 10.394 3.839 10.387 3.839 10.387a.34.34 0 0 1 .238.09.38.38 0 0 1 .126.232q.008.045.005.088a.4.4 0 0 1-.017.089c-.01.03-.07.223-.192.54-.123.318-.31.76-.568 1.284a18.3 18.3 0 0 1-2.532 3.821 16.3 16.3 0 0 1-2.008 1.964 16 16 0 0 1-2.743 1.814 16 16 0 0 1-3.539 1.335 18.25 18.25 0 0 1-4.402.518 18 18 0 0 1-4.402-.518 16 16 0 0 1-3.54-1.335 15.8 15.8 0 0 1-2.742-1.814 16.5 16.5 0 0 1-2.008-1.964 18.6 18.6 0 0 1-2.534-3.821c-.26-.524-.445-.964-.568-1.283-.123-.32-.182-.512-.192-.541a.4.4 0 0 1-.018-.09q-.001-.047.005-.09a.4.4 0 0 1 .024-.087.35.35 0 0 1 .101-.145.37.37 0 0 1 .239-.09l3.866-10.464 3.864-10.46 3.863-10.461L15.83 4.434q.001-.008.007-.017l.01-.015.012-.015.012-.014.009-.009.009-.006.017-.013.017-.01.022-.01.01-.002c.002 0 .017 0 .02-.002q.004-.004.007-.003l.012-.002c.054-.008.294-.04.735-.091l.157-.017a63 63 0 0 1 2.136-.194c1.04-.081 2.37-.167 4.01-.246 1.638-.079 3.59-.145 5.883-.19.219-.343.502-.737.846-1.135a8 8 0 0 1 1.231-1.16 6.5 6.5 0 0 1 1.632-.907A5.9 5.9 0 0 1 34.67 0ZM16.003 5.166l-3.3 10.28L9.4 25.723 2.8 46.28h26.408l-6.602-20.557-3.301-10.279zm37.433-.002L43.533 36l-3.3 10.279H66.64L63.339 36l-3.301-10.279-3.3-10.278zM214.91 6.24c.72 0 1.396.138 2.008.394a4.97 4.97 0 0 1 2.691 2.696c.253.612.391 1.288.391 2.003s-.138 1.391-.39 2.003a4.97 4.97 0 0 1-2.692 2.697 5.2 5.2 0 0 1-2.008.393c-.718 0-1.396-.14-2.008-.393a4.97 4.97 0 0 1-2.692-2.697 5.2 5.2 0 0 1-.39-2.003c0-.715.137-1.391.39-2.003a4.97 4.97 0 0 1 2.692-2.696 5.2 5.2 0 0 1 2.008-.394m0 .726c-.615 0-1.192.12-1.71.339a4.2 4.2 0 0 0-1.363.929 4.3 4.3 0 0 0-.9 1.386 4.6 4.6 0 0 0-.324 1.71c0 .61.114 1.188.325 1.711.209.524.516.993.9 1.387.383.393.843.712 1.361.931a4.4 4.4 0 0 0 1.71.34 4.4 4.4 0 0 0 1.711-.342 4.2 4.2 0 0 0 1.362-.93 4.3 4.3 0 0 0 .9-1.386 4.6 4.6 0 0 0 .324-1.71c0-.61-.113-1.187-.324-1.711a4.2 4.2 0 0 0-.9-1.386 4.2 4.2 0 0 0-1.362-.93 4.4 4.4 0 0 0-1.71-.338m.413 1.425q.494.001.857.106c.244.069.44.174.598.312q.232.208.346.511t.113.698q-.001.388-.118.676a1.4 1.4 0 0 1-.322.484 1.6 1.6 0 0 1-.471.315 2.4 2.4 0 0 1-.566.167l.438.654.437.654.433.653.437.654h-.845l-.826-1.307-.413-.654-.413-.654h-1.219v2.615h-.728V8.391Zm-.202.612h-1.327v2.04h.954c.22 0 .45-.007.656-.024s.4-.052.565-.118a.82.82 0 0 0 .398-.305c.096-.143.15-.332.15-.583a1 1 0 0 0-.118-.504.8.8 0 0 0-.312-.31 1.4 1.4 0 0 0-.447-.154 3 3 0 0 0-.519-.042M34.72 2.18a2.7 2.7 0 0 0-1.033.209 2.6 2.6 0 0 0-.843.568 2.7 2.7 0 0 0-.567.843 2.67 2.67 0 0 0 0 2.065c.132.317.326.604.567.842.241.239.526.433.843.568s.666.21 1.033.21a2.7 2.7 0 0 0 1.032-.21c.317-.132.605-.327.843-.568a2.7 2.7 0 0 0 .568-.843c.135-.317.209-.666.209-1.032a2.7 2.7 0 0 0-.21-1.032 2.6 2.6 0 0 0-.567-.843 2.7 2.7 0 0 0-.843-.568 2.6 2.6 0 0 0-1.032-.209"/></svg>