<?xml version="1.0" encoding="utf-8"?>
<!-- Generator: Adobe Illustrator 24.3.0, SVG Export Plug-In . SVG Version: 6.00 Build 0)  -->
<svg version="1.1" id="Layer_1" xmlns="http://www.w3.org/2000/svg" xmlns:xlink="http://www.w3.org/1999/xlink" x="0px" y="0px"
	 viewBox="0 0 508 202" style="enable-background:new 0 0 508 202;" xml:space="preserve">
<style type="text/css">
	.st0{display:none;}
	.st1{display:inline;fill:#231F20;stroke:#000000;stroke-miterlimit:10;}
	.st2{fill:#000000;}
</style>
<g id="Layer_2_1_" class="st0">
	<rect y="-86" class="st1" width="1044" height="380"/>
</g>
<g id="SGC">
	<g>
		<path class="st2" d="M497.4,25.1h-0.8l-1.4-3.1c0.7-0.3,1.2-0.8,1.4-1.4s0.4-1.1,0.4-1.6c0-0.4-0.1-0.9-0.2-1.2
			c-0.2-0.4-0.4-0.7-0.7-1s-0.7-0.5-1.1-0.7s-0.9-0.2-1.4-0.2h-4.8c-0.1,0.2-0.1,0.4-0.1,0.5s0,0.2,0,0.3c0,0.1,0,0.2,0,0.3
			c0,0.1,0.1,0.3,0.1,0.5h0.8v7.6h-0.8c-0.1,0.2-0.1,0.4-0.1,0.5s0,0.2,0,0.3c0,0.1,0,0.2,0,0.3c0,0.1,0.1,0.3,0.1,0.5h3.6
			c0.1-0.2,0.1-0.4,0.1-0.5s0-0.2,0-0.3c0-0.1,0-0.2,0-0.3c0-0.1-0.1-0.3-0.1-0.5h-0.9v-2.8h1.6l1.9,4.4h2.3
			c0.1-0.2,0.1-0.4,0.1-0.5s0-0.2,0-0.3c0-0.1,0-0.2,0-0.3C497.6,25.5,497.5,25.3,497.4,25.1z M494.4,20.1c-0.3,0.3-0.7,0.4-1.2,0.4
			h-1.7v-3h1.7c0.5,0,0.9,0.1,1.1,0.4c0.3,0.3,0.4,0.6,0.4,1C494.8,19.5,494.7,19.9,494.4,20.1z"/>
		<path class="st2" d="M501.6,17.5c-0.5-1.1-1.2-2.1-2-3c-0.9-0.8-1.9-1.5-3-1.9c-1.1-0.5-2.3-0.7-3.6-0.7s-2.5,0.2-3.6,0.7
			s-2.2,1.1-3,1.9c-0.9,0.8-1.5,1.8-2,3c-0.5,1.1-0.8,2.4-0.8,3.7c0,1.4,0.3,2.6,0.8,3.7s1.2,2.1,2,3c0.9,0.8,1.9,1.5,3,2
			s2.4,0.7,3.6,0.7c1.3,0,2.5-0.2,3.6-0.7s2.1-1.1,3-2c0.9-0.8,1.5-1.8,2-3c0.5-1.1,0.8-2.4,0.8-3.7S502.1,18.7,501.6,17.5z
			 M499.4,24.2c-0.4,0.9-0.9,1.7-1.5,2.3c-0.6,0.6-1.4,1.1-2.2,1.5c-0.9,0.4-1.8,0.5-2.7,0.5c-1,0-1.9-0.2-2.8-0.5
			c-0.9-0.4-1.6-0.9-2.2-1.5s-1.1-1.4-1.5-2.3s-0.5-1.9-0.5-2.9s0.2-2,0.5-2.9c0.4-0.9,0.9-1.6,1.5-2.3c0.6-0.6,1.4-1.1,2.2-1.5
			c0.9-0.4,1.8-0.5,2.8-0.5s1.9,0.2,2.7,0.5c0.9,0.4,1.6,0.9,2.2,1.5s1.1,1.4,1.5,2.3s0.5,1.8,0.5,2.9
			C500,22.3,499.8,23.3,499.4,24.2z"/>
		<path class="st2" d="M460.5,134.2c-4.5,2-9.6,3.7-15.4,5.1c-5.8,1.4-12.1,2-19,2c-13.2,0-23.3-3.2-30.3-9.6
			c-7.1-6.4-10.6-17.6-10.6-33.5c0-28.3,8.5-42.4,25.5-42.4c5.8,0,10.1,1.8,13,5.4c2.9,3.6,4.3,8.8,4.3,15.5c0,2,1.8,3.8,3.8,3.8
			h47.5V16.2c0-2.4-2-4.4-4.4-4.4h-38.3v6.8c-3.1-1.9-7.2-4-12.5-6.1c-5.3-2.2-12.8-3.3-22.4-3.3c-11.6,0-22.1,2.2-31.7,6.5
			s-17.7,10.6-24.6,18.7c-6.8,8.1-12.1,17.9-15.9,29.3c-2.7,8.1-5.2,16.9-6,26.2h-87.4v21.3c0,11.5,9.3,20.8,20.8,20.8h2.9v5.7v8.3
			c-0.3,0.2-1.8,0.4-4.5,0.7c-2.6,0.3-5.5,0.5-8.5,0.5c-4.2,0-8.2-0.8-12.2-2.3c-3.9-1.5-7.5-4.1-10.6-7.7
			c-3.1-3.6-5.6-8.3-7.5-14.2c-1.8-5.9-2.8-13.1-2.8-21.8c0-6.7,0.6-12.9,1.9-18.5c1.3-5.6,3.2-10.5,5.7-14.6s5.6-7.3,9.3-9.6
			s7.9-3.5,12.5-3.5c6.1,0,10.8,1.6,14.2,4.8c3.4,3.2,5.1,7.1,5.1,11.8v4.5c0,2.4,2,4.4,4.4,4.4h48.6V16.2c0-2.4-2-4.4-4.4-4.4
			h-38.3v7.1c-4.5-2.9-10.3-5.2-17.3-7c-7.1-1.8-14-2.6-20.7-2.6c-12.5,0-23.8,2.3-33.8,6.7c-10,4.5-18.6,10.8-25.8,18.8
			c-7.1,8-12.6,17.7-16.5,29.1c-3.9,11.4-5.8,23.9-5.8,37.6c0,1.5,0,2.9,0.1,4.3c-0.2-0.3-0.3-0.6-0.5-0.8c-3.3-5.2-8-10-14.1-14.2
			c-6.1-4.3-14.2-7.6-24.3-10L69.2,70c-2.9-0.8-4.8-1.8-5.7-3c-0.9-1.2-1.3-2.4-1.3-3.7c0-2.2,1.1-4.4,3.4-6.5
			c2.2-2.1,6.7-3.1,13.5-3.1c7.2,0,12.9,1.5,17.1,4.5c3,2.1,4.9,4.5,5.8,7c0.5,1.5,1.9,2.5,3.5,2.5h46.4V16.4c0-2.4-2-4.4-4.4-4.4
			h-38.2v7.1c-4-2.6-9.3-4.7-15.8-6.5S79.2,10,70,10c-7.7,0-15.4,1.1-23.1,3.4c-7.7,2.2-14.6,5.7-20.7,10.2
			c-6.1,4.6-11,10.4-14.8,17.6c-3.8,7.1-5.7,15.5-5.7,25.2c0,26.3,13.5,42.9,40.5,49.8L92,128c7.1,1.9,10.6,5.5,10.6,10.6
			c0,2.7-1.2,4.9-3.6,6.5s-6.3,2.4-11.6,2.4c-10.1,0-17.9-1.6-23.2-4.9c-5.4-3.3-8.1-7.3-8.1-11.9c0-2-1.7-3.6-3.8-3.6H5.2v59
			c0,2.4,2,4.4,4.4,4.4h41.1V184c5,2.6,10.8,4.7,17.5,6.4c6.7,1.7,15.1,2.5,25.4,2.5c6.6,0,13.8-0.7,21.6-2.2
			c7.8-1.4,15.1-4.2,21.8-8.2s12.4-9.6,16.9-16.7c3.6-5.8,5.8-13,6.5-21.7c3.5,8.8,8.3,16.5,14.4,23.2c7.5,8.2,16.9,14.6,28.4,19.3
			s25.2,7,41.3,7c10.1,0,19.4-0.7,27.9-2.2c8.5-1.4,16-3.1,22.4-4.9s11.7-3.7,15.8-5.4c4.1-1.8,6.8-3,8.1-3.6v-45.3h28.2l-17.7,5.7
			c0.8,2.7,1.3,4.1,1.3,4.1c3.9,10.6,9.5,19.8,17,27.5c15.6,16.1,38.4,24.1,68.6,24.1c9.6,0,18.1-0.6,25.3-1.7s13.4-2.4,18.5-3.9
			c5.1-1.4,9.3-2.9,12.5-4.5c3.2-1.5,5.6-2.7,7.2-3.5v-57.6c-1.8,1.4-4.3,3.3-7.5,5.4C468.8,130.1,465,132.2,460.5,134.2z"/>
	</g>
</g>
<g id="Guides" class="st0">
</g>
</svg>
